<?xml version="1.0" encoding="utf-8"?>
<!-- Generator: Adobe Illustrator 23.0.6, SVG Export Plug-In . SVG Version: 6.00 Build 0)  -->
<svg version="1.1" id="Camada_1" xmlns="http://www.w3.org/2000/svg" xmlns:xlink="http://www.w3.org/1999/xlink" x="0px" y="0px"
	 viewBox="0 0 283.46 283.46" style="enable-background:new 0 0 283.46 283.46;" xml:space="preserve">
<style type="text/css">
	.st0{fill:#FFFFFF;}
	.st1{fill:#BE1622;}
</style>
<rect x="-2.4" y="-2.26" width="290.12" height="290.12"/>
<g>
	<g>
		<g>
			<g>
				<path class="st0" d="M195.11,166.71c-1.04,0-2.43-0.16-3.44-1.16c-1.07-1.07-1.2-2.55-1.17-3.99c0.08-4.52,0.07-9.12,0.05-13.58
					c-0.01-1.8-0.01-3.59-0.01-5.38c0-1.82,0.01-3.64,0.01-5.46c0.01-4.55,0.03-9.25-0.05-13.87c-0.02-1.18,0.09-2.67,1.15-3.73
					c1.06-1.06,2.56-1.15,3.59-1.15c7.04,0.12,14.2,0.07,21.13,0.03l1.18-0.01c1.11,0,2.39,0.11,3.31,1.05
					c0.7,0.71,1.02,1.69,1,3.01c-0.07,3.69-3.2,3.68-4.22,3.68c-1.88,0-3.77,0-5.65,0.01c-3.9,0.02-7.93,0.03-11.9-0.06
					c-0.99-0.02-1.29,0.12-1.32,0.14c0.01,0.01-0.11,0.27-0.05,1.08c0.21,3.26,0.21,6.35-0.01,9.18c-0.07,0.94,0.08,1.18,0.09,1.18
					c0.01,0,0.28,0.18,1.53,0.14c3.3-0.1,6.64-0.08,9.87-0.06c1.81,0.01,3.63,0.02,5.45,0.01c1.18-0.01,2.66-0.02,3.73,1.07
					c0.69,0.71,1.03,1.73,0.99,3.02c-0.03,1.19-0.39,2.11-1.07,2.73c-1,0.92-2.27,0.85-3.12,0.8c-0.17-0.01-0.32-0.02-0.5-0.02
					l-0.71,0.01c-4.91,0.05-9.99,0.1-15-0.01c-0.87-0.02-1.15,0.08-1.22,0.11c0.01,0.02-0.07,0.26-0.04,0.89
					c0.15,3.55,0.16,7.37,0.01,11.68c-0.02,0.57,0.04,0.8,0.07,0.87c0.02-0.02,0.25,0.05,0.79,0.05c0.04,0,0.08,0,0.12,0
					c3.85-0.07,7.75-0.06,11.53-0.05c2.25,0,4.5,0.01,6.75,0l0.18,0c1.1-0.01,2.47-0.02,3.48,1.02c0.69,0.71,1.01,1.72,0.97,3.07
					c-0.12,3.76-3.16,3.67-4.15,3.64l-0.41-0.01c-2.29,0.01-4.6-0.01-6.91-0.01c-5.18-0.02-10.53-0.04-15.78,0.07
					C195.27,166.71,195.19,166.71,195.11,166.71z"/>
			</g>
			<g>
				<path class="st0" d="M166.85,166.75C166.85,166.75,166.85,166.75,166.85,166.75c-3.66,0-4.59-2.51-5.2-4.17l-0.14-0.37
					c-1.49-3.93-2.99-7.85-4.48-11.78c-3.31-8.7-6.63-17.39-9.89-26.11c-0.06-0.14-1.51-2.41-1.04-3.76
					c0.3-0.86,1.01-1.49,2.09-1.87c4.58-1.57,6.23,1.56,6.73,2.99c1.7,4.86,3.58,9.77,5.39,14.52c0.76,1.99,1.52,3.99,2.28,5.99
					c1.3,3.45,2.59,6.9,3.89,10.35l0.47,1.24l1.79-4.8c2.36-6.33,4.73-12.67,7.1-19c0.35-0.94,0.73-1.88,1.1-2.82
					c0.74-1.86,1.44-3.61,1.99-5.43c0.55-1.82,1.6-2.67,2.39-3.06c1.24-0.61,2.72-0.6,4.41,0.04c1.27,0.48,1.77,1.27,1.97,1.85
					c0.46,1.34-0.27,2.52-0.75,3.3c-0.11,0.18-0.23,0.35-0.29,0.5c-3.17,8.43-6.39,16.84-9.6,25.25c-1.61,4.2-3.22,8.41-4.82,12.61
					l-0.1,0.26C171.49,164.2,170.53,166.75,166.85,166.75z M149.2,122.16L149.2,122.16L149.2,122.16z"/>
			</g>
			<g>
				<path class="st0" d="M107.39,166.7c-0.91,0-2.15-0.13-3.06-1.04c-0.96-0.95-1.07-2.25-1.06-3.4c0.06-4.75,0.05-9.58,0.04-14.26
					l-0.02-10.47c-0.01-4.45-0.02-9.04,0.04-13.57c0-0.24-0.03-0.5-0.06-0.77c-0.11-1-0.26-2.52,0.8-3.66
					c0.75-0.81,1.88-1.18,3.43-1.15c1.45,0.04,2.49,0.44,3.19,1.24c0.99,1.13,0.85,2.57,0.76,3.52c-0.02,0.24-0.05,0.47-0.05,0.69
					l0.02,4.23c0.05,9.47,0.11,19.27-0.07,28.91c-0.03,1.5,0.24,1.8,0.27,1.83c0.05,0.05,0.36,0.27,1.85,0.2
					c3.27-0.16,6.57-0.13,9.77-0.1c1.6,0.02,3.2,0.03,4.81,0.02c1.12-0.01,4.12-0.02,4.18,3.68c0.02,1.34-0.31,2.33-1,3.03
					c-0.92,0.93-2.16,1.03-3.27,1.03c-6.57-0.05-13.56-0.09-20.42,0.02C107.5,166.7,107.44,166.7,107.39,166.7z"/>
			</g>
			<g>
				<path class="st0" d="M139.11,166.71c-1.18,0-2.07-0.32-2.73-0.96c-0.92-0.91-1.02-2.13-1.01-3.1c0.04-3.02,0.03-6.04,0.02-9.05
					l-0.01-3.56l0.01-3.38c0.01-2.83,0.02-6.35-0.03-9.19c-0.01-0.89,0.08-2.17,1.01-3.09c0.69-0.68,1.64-0.99,2.91-0.96
					c1.07,0.03,4.33,0.11,4.3,4.05c-0.06,8.11-0.06,17.04,0,25.2c0.03,3.94-3.23,4.02-4.3,4.05
					C139.23,166.7,139.17,166.71,139.11,166.71z"/>
			</g>
		</g>
	</g>
	<circle class="st1" cx="139.15" cy="124.71" r="5.55"/>
</g>
<g>
	<path class="st0" d="M141.86,199.98c0.11,2.03-0.52,4.73-2.24,7.11c-2.13,2.95-5.06,4.26-8.66,4.05c-3.85-0.22-6.98-1.83-9.23-4.98
		c-1.07-1.5-1.82-3.18-2.08-5.02c-0.2-1.45,0.22-2.84,0.69-4.18c1.5-4.2,4.6-6.45,8.96-6.86c2.56-0.24,5.05,0.33,7.31,1.64
		c0.85,0.5,1.7,1.03,2.47,1.65C141.06,195,141.77,196.55,141.86,199.98z"/>
	<path class="st0" d="M188.21,190.3c3.18-0.02,5.97,1.08,8.53,2.9c2.13,1.52,3.29,3.52,3.3,6.17c0.01,2.21-0.22,4.35-1.25,6.35
		c-1.43,2.76-3.5,4.76-6.61,5.44c-5.52,1.19-11.44-1.75-13.66-7.27c-0.98-2.45-0.77-4.72,0.14-7.03c1.56-3.99,4.63-6.02,8.8-6.54
		C187.71,190.3,187.96,190.31,188.21,190.3z"/>
	<path class="st0" d="M91.19,189.05c-1.02-3.35-7.95-33.21-7.95-33.21s-20.12,0.11-20.33,0.57c-1.68,3.63-2.54,7.73-4.48,11.23
		c-1.42,2.68-4.33,3.71-7.06,4.55c-2.66,0.93-5.43,1.36-8.19,1.87c-1.27,0.23-2.53,0.56-3.81,0.76c-1.72,0.27-3-0.55-4.13-1.76
		c-1.53-1.65-0.93-4.61,0.95-5.81c3.74-2.87,8.78-2.98,13.24-4.01c0.83-0.16,1.39-0.66,1.73-1.41c6.95-15.26,15.36-54,19.46-62.67
		c2.17-4.64,12.58-3.21,13.62,1.77c1.99,7.16,4.75,37.03,11.83,68.4l3.03,11.88c0,0,24.56-6.4,56.87-6.14
		c32.31,0.26,41.95,3.13,49.7,4.11c7.75,0.98,14.71,1.55,18.65-0.13c3.95-1.68,6.97-8.54,6.64-22.45c-0.25-10.61,0-14.7,3.81-14.85
		c2.8-0.11,4.44,1.87,4.44,13.02c0,15.09-1.5,22.8-5.45,27.75c-3.95,4.95-13.31,8.9-31.7,4.96s-64.92-8.75-104.38,4.75
		C97.68,192.23,92.56,193.55,91.19,189.05z M76.39,113.24c-0.7,0.28-6.61,19.65-10.39,33.7c-0.13,0.36,15.89,0.41,15.78-0.44
		C80.84,138.33,77.03,116.61,76.39,113.24z"/>
</g>
<path d="M96.6,193.24"/>
</svg>
